<mxfile host="app.diagrams.net" modified="2021-06-30T10:06:29.465Z" agent="5.0 (Windows NT 10.0; Win64; x64) AppleWebKit/537.36 (KHTML, like Gecko) Chrome/91.0.4472.114 Safari/537.36" etag="q6zr3Nyqat6b-tn-fG4Z" version="14.8.2" type="github">
  <diagram id="k71OC6vGhGjUJrV-vkEG" name="Page-1">
    <mxGraphModel dx="1420" dy="834" grid="1" gridSize="10" guides="1" tooltips="1" connect="1" arrows="1" fold="1" page="1" pageScale="1" pageWidth="850" pageHeight="1100" math="0" shadow="0">
      <root>
        <mxCell id="0" />
        <mxCell id="1" parent="0" />
        <mxCell id="RHV5B-X_f4Wp_k9Wsj0C-1" value="Students" style="shape=table;startSize=30;container=1;collapsible=1;childLayout=tableLayout;fixedRows=1;rowLines=0;fontStyle=1;align=center;resizeLast=1;" vertex="1" parent="1">
          <mxGeometry x="40" y="320" width="180" height="160" as="geometry" />
        </mxCell>
        <mxCell id="RHV5B-X_f4Wp_k9Wsj0C-2" value="" style="shape=partialRectangle;collapsible=0;dropTarget=0;pointerEvents=0;fillColor=none;top=0;left=0;bottom=1;right=0;points=[[0,0.5],[1,0.5]];portConstraint=eastwest;" vertex="1" parent="RHV5B-X_f4Wp_k9Wsj0C-1">
          <mxGeometry y="30" width="180" height="30" as="geometry" />
        </mxCell>
        <mxCell id="RHV5B-X_f4Wp_k9Wsj0C-3" value="PK" style="shape=partialRectangle;connectable=0;fillColor=none;top=0;left=0;bottom=0;right=0;fontStyle=1;overflow=hidden;" vertex="1" parent="RHV5B-X_f4Wp_k9Wsj0C-2">
          <mxGeometry width="30" height="30" as="geometry" />
        </mxCell>
        <mxCell id="RHV5B-X_f4Wp_k9Wsj0C-4" value="id" style="shape=partialRectangle;connectable=0;fillColor=none;top=0;left=0;bottom=0;right=0;align=left;spacingLeft=6;fontStyle=5;overflow=hidden;" vertex="1" parent="RHV5B-X_f4Wp_k9Wsj0C-2">
          <mxGeometry x="30" width="150" height="30" as="geometry" />
        </mxCell>
        <mxCell id="RHV5B-X_f4Wp_k9Wsj0C-5" value="" style="shape=partialRectangle;collapsible=0;dropTarget=0;pointerEvents=0;fillColor=none;top=0;left=0;bottom=0;right=0;points=[[0,0.5],[1,0.5]];portConstraint=eastwest;" vertex="1" parent="RHV5B-X_f4Wp_k9Wsj0C-1">
          <mxGeometry y="60" width="180" height="30" as="geometry" />
        </mxCell>
        <mxCell id="RHV5B-X_f4Wp_k9Wsj0C-6" value="" style="shape=partialRectangle;connectable=0;fillColor=none;top=0;left=0;bottom=0;right=0;editable=1;overflow=hidden;" vertex="1" parent="RHV5B-X_f4Wp_k9Wsj0C-5">
          <mxGeometry width="30" height="30" as="geometry" />
        </mxCell>
        <mxCell id="RHV5B-X_f4Wp_k9Wsj0C-7" value="name" style="shape=partialRectangle;connectable=0;fillColor=none;top=0;left=0;bottom=0;right=0;align=left;spacingLeft=6;overflow=hidden;" vertex="1" parent="RHV5B-X_f4Wp_k9Wsj0C-5">
          <mxGeometry x="30" width="150" height="30" as="geometry" />
        </mxCell>
        <mxCell id="RHV5B-X_f4Wp_k9Wsj0C-8" value="" style="shape=partialRectangle;collapsible=0;dropTarget=0;pointerEvents=0;fillColor=none;top=0;left=0;bottom=0;right=0;points=[[0,0.5],[1,0.5]];portConstraint=eastwest;" vertex="1" parent="RHV5B-X_f4Wp_k9Wsj0C-1">
          <mxGeometry y="90" width="180" height="30" as="geometry" />
        </mxCell>
        <mxCell id="RHV5B-X_f4Wp_k9Wsj0C-9" value="" style="shape=partialRectangle;connectable=0;fillColor=none;top=0;left=0;bottom=0;right=0;editable=1;overflow=hidden;" vertex="1" parent="RHV5B-X_f4Wp_k9Wsj0C-8">
          <mxGeometry width="30" height="30" as="geometry" />
        </mxCell>
        <mxCell id="RHV5B-X_f4Wp_k9Wsj0C-10" value="email" style="shape=partialRectangle;connectable=0;fillColor=none;top=0;left=0;bottom=0;right=0;align=left;spacingLeft=6;overflow=hidden;" vertex="1" parent="RHV5B-X_f4Wp_k9Wsj0C-8">
          <mxGeometry x="30" width="150" height="30" as="geometry" />
        </mxCell>
        <mxCell id="RHV5B-X_f4Wp_k9Wsj0C-11" value="" style="shape=partialRectangle;collapsible=0;dropTarget=0;pointerEvents=0;fillColor=none;top=0;left=0;bottom=0;right=0;points=[[0,0.5],[1,0.5]];portConstraint=eastwest;" vertex="1" parent="RHV5B-X_f4Wp_k9Wsj0C-1">
          <mxGeometry y="120" width="180" height="30" as="geometry" />
        </mxCell>
        <mxCell id="RHV5B-X_f4Wp_k9Wsj0C-12" value="" style="shape=partialRectangle;connectable=0;fillColor=none;top=0;left=0;bottom=0;right=0;editable=1;overflow=hidden;" vertex="1" parent="RHV5B-X_f4Wp_k9Wsj0C-11">
          <mxGeometry width="30" height="30" as="geometry" />
        </mxCell>
        <mxCell id="RHV5B-X_f4Wp_k9Wsj0C-13" value="password" style="shape=partialRectangle;connectable=0;fillColor=none;top=0;left=0;bottom=0;right=0;align=left;spacingLeft=6;overflow=hidden;" vertex="1" parent="RHV5B-X_f4Wp_k9Wsj0C-11">
          <mxGeometry x="30" width="150" height="30" as="geometry" />
        </mxCell>
        <mxCell id="RHV5B-X_f4Wp_k9Wsj0C-14" value="StudentProjects" style="shape=table;startSize=30;container=1;collapsible=1;childLayout=tableLayout;fixedRows=1;rowLines=0;fontStyle=1;align=center;resizeLast=1;" vertex="1" parent="1">
          <mxGeometry x="270" y="320" width="180" height="160" as="geometry" />
        </mxCell>
        <mxCell id="RHV5B-X_f4Wp_k9Wsj0C-15" value="" style="shape=partialRectangle;collapsible=0;dropTarget=0;pointerEvents=0;fillColor=none;top=0;left=0;bottom=1;right=0;points=[[0,0.5],[1,0.5]];portConstraint=eastwest;" vertex="1" parent="RHV5B-X_f4Wp_k9Wsj0C-14">
          <mxGeometry y="30" width="180" height="30" as="geometry" />
        </mxCell>
        <mxCell id="RHV5B-X_f4Wp_k9Wsj0C-16" value="PK" style="shape=partialRectangle;connectable=0;fillColor=none;top=0;left=0;bottom=0;right=0;fontStyle=1;overflow=hidden;" vertex="1" parent="RHV5B-X_f4Wp_k9Wsj0C-15">
          <mxGeometry width="30" height="30" as="geometry" />
        </mxCell>
        <mxCell id="RHV5B-X_f4Wp_k9Wsj0C-17" value="id" style="shape=partialRectangle;connectable=0;fillColor=none;top=0;left=0;bottom=0;right=0;align=left;spacingLeft=6;fontStyle=5;overflow=hidden;" vertex="1" parent="RHV5B-X_f4Wp_k9Wsj0C-15">
          <mxGeometry x="30" width="150" height="30" as="geometry" />
        </mxCell>
        <mxCell id="RHV5B-X_f4Wp_k9Wsj0C-18" value="" style="shape=partialRectangle;collapsible=0;dropTarget=0;pointerEvents=0;fillColor=none;top=0;left=0;bottom=0;right=0;points=[[0,0.5],[1,0.5]];portConstraint=eastwest;" vertex="1" parent="RHV5B-X_f4Wp_k9Wsj0C-14">
          <mxGeometry y="60" width="180" height="30" as="geometry" />
        </mxCell>
        <mxCell id="RHV5B-X_f4Wp_k9Wsj0C-19" value="" style="shape=partialRectangle;connectable=0;fillColor=none;top=0;left=0;bottom=0;right=0;editable=1;overflow=hidden;" vertex="1" parent="RHV5B-X_f4Wp_k9Wsj0C-18">
          <mxGeometry width="30" height="30" as="geometry" />
        </mxCell>
        <mxCell id="RHV5B-X_f4Wp_k9Wsj0C-20" value="StudentsId" style="shape=partialRectangle;connectable=0;fillColor=none;top=0;left=0;bottom=0;right=0;align=left;spacingLeft=6;overflow=hidden;" vertex="1" parent="RHV5B-X_f4Wp_k9Wsj0C-18">
          <mxGeometry x="30" width="150" height="30" as="geometry" />
        </mxCell>
        <mxCell id="RHV5B-X_f4Wp_k9Wsj0C-21" value="" style="shape=partialRectangle;collapsible=0;dropTarget=0;pointerEvents=0;fillColor=none;top=0;left=0;bottom=0;right=0;points=[[0,0.5],[1,0.5]];portConstraint=eastwest;" vertex="1" parent="RHV5B-X_f4Wp_k9Wsj0C-14">
          <mxGeometry y="90" width="180" height="30" as="geometry" />
        </mxCell>
        <mxCell id="RHV5B-X_f4Wp_k9Wsj0C-22" value="" style="shape=partialRectangle;connectable=0;fillColor=none;top=0;left=0;bottom=0;right=0;editable=1;overflow=hidden;" vertex="1" parent="RHV5B-X_f4Wp_k9Wsj0C-21">
          <mxGeometry width="30" height="30" as="geometry" />
        </mxCell>
        <mxCell id="RHV5B-X_f4Wp_k9Wsj0C-23" value="ProjectsId" style="shape=partialRectangle;connectable=0;fillColor=none;top=0;left=0;bottom=0;right=0;align=left;spacingLeft=6;overflow=hidden;" vertex="1" parent="RHV5B-X_f4Wp_k9Wsj0C-21">
          <mxGeometry x="30" width="150" height="30" as="geometry" />
        </mxCell>
        <mxCell id="RHV5B-X_f4Wp_k9Wsj0C-24" value="" style="shape=partialRectangle;collapsible=0;dropTarget=0;pointerEvents=0;fillColor=none;top=0;left=0;bottom=0;right=0;points=[[0,0.5],[1,0.5]];portConstraint=eastwest;" vertex="1" parent="RHV5B-X_f4Wp_k9Wsj0C-14">
          <mxGeometry y="120" width="180" height="30" as="geometry" />
        </mxCell>
        <mxCell id="RHV5B-X_f4Wp_k9Wsj0C-25" value="" style="shape=partialRectangle;connectable=0;fillColor=none;top=0;left=0;bottom=0;right=0;editable=1;overflow=hidden;" vertex="1" parent="RHV5B-X_f4Wp_k9Wsj0C-24">
          <mxGeometry width="30" height="30" as="geometry" />
        </mxCell>
        <mxCell id="RHV5B-X_f4Wp_k9Wsj0C-26" value="status_report" style="shape=partialRectangle;connectable=0;fillColor=none;top=0;left=0;bottom=0;right=0;align=left;spacingLeft=6;overflow=hidden;" vertex="1" parent="RHV5B-X_f4Wp_k9Wsj0C-24">
          <mxGeometry x="30" width="150" height="30" as="geometry" />
        </mxCell>
        <mxCell id="RHV5B-X_f4Wp_k9Wsj0C-27" value="Projects" style="shape=table;startSize=30;container=1;collapsible=1;childLayout=tableLayout;fixedRows=1;rowLines=0;fontStyle=1;align=center;resizeLast=1;" vertex="1" parent="1">
          <mxGeometry x="490" y="320" width="180" height="190" as="geometry" />
        </mxCell>
        <mxCell id="RHV5B-X_f4Wp_k9Wsj0C-28" value="" style="shape=partialRectangle;collapsible=0;dropTarget=0;pointerEvents=0;fillColor=none;top=0;left=0;bottom=1;right=0;points=[[0,0.5],[1,0.5]];portConstraint=eastwest;" vertex="1" parent="RHV5B-X_f4Wp_k9Wsj0C-27">
          <mxGeometry y="30" width="180" height="30" as="geometry" />
        </mxCell>
        <mxCell id="RHV5B-X_f4Wp_k9Wsj0C-29" value="PK" style="shape=partialRectangle;connectable=0;fillColor=none;top=0;left=0;bottom=0;right=0;fontStyle=1;overflow=hidden;" vertex="1" parent="RHV5B-X_f4Wp_k9Wsj0C-28">
          <mxGeometry width="30" height="30" as="geometry" />
        </mxCell>
        <mxCell id="RHV5B-X_f4Wp_k9Wsj0C-30" value="id" style="shape=partialRectangle;connectable=0;fillColor=none;top=0;left=0;bottom=0;right=0;align=left;spacingLeft=6;fontStyle=5;overflow=hidden;" vertex="1" parent="RHV5B-X_f4Wp_k9Wsj0C-28">
          <mxGeometry x="30" width="150" height="30" as="geometry" />
        </mxCell>
        <mxCell id="RHV5B-X_f4Wp_k9Wsj0C-31" value="" style="shape=partialRectangle;collapsible=0;dropTarget=0;pointerEvents=0;fillColor=none;top=0;left=0;bottom=0;right=0;points=[[0,0.5],[1,0.5]];portConstraint=eastwest;" vertex="1" parent="RHV5B-X_f4Wp_k9Wsj0C-27">
          <mxGeometry y="60" width="180" height="30" as="geometry" />
        </mxCell>
        <mxCell id="RHV5B-X_f4Wp_k9Wsj0C-32" value="" style="shape=partialRectangle;connectable=0;fillColor=none;top=0;left=0;bottom=0;right=0;editable=1;overflow=hidden;" vertex="1" parent="RHV5B-X_f4Wp_k9Wsj0C-31">
          <mxGeometry width="30" height="30" as="geometry" />
        </mxCell>
        <mxCell id="RHV5B-X_f4Wp_k9Wsj0C-33" value="task_name" style="shape=partialRectangle;connectable=0;fillColor=none;top=0;left=0;bottom=0;right=0;align=left;spacingLeft=6;overflow=hidden;" vertex="1" parent="RHV5B-X_f4Wp_k9Wsj0C-31">
          <mxGeometry x="30" width="150" height="30" as="geometry" />
        </mxCell>
        <mxCell id="RHV5B-X_f4Wp_k9Wsj0C-34" value="" style="shape=partialRectangle;collapsible=0;dropTarget=0;pointerEvents=0;fillColor=none;top=0;left=0;bottom=0;right=0;points=[[0,0.5],[1,0.5]];portConstraint=eastwest;" vertex="1" parent="RHV5B-X_f4Wp_k9Wsj0C-27">
          <mxGeometry y="90" width="180" height="30" as="geometry" />
        </mxCell>
        <mxCell id="RHV5B-X_f4Wp_k9Wsj0C-35" value="" style="shape=partialRectangle;connectable=0;fillColor=none;top=0;left=0;bottom=0;right=0;editable=1;overflow=hidden;" vertex="1" parent="RHV5B-X_f4Wp_k9Wsj0C-34">
          <mxGeometry width="30" height="30" as="geometry" />
        </mxCell>
        <mxCell id="RHV5B-X_f4Wp_k9Wsj0C-36" value="subject" style="shape=partialRectangle;connectable=0;fillColor=none;top=0;left=0;bottom=0;right=0;align=left;spacingLeft=6;overflow=hidden;" vertex="1" parent="RHV5B-X_f4Wp_k9Wsj0C-34">
          <mxGeometry x="30" width="150" height="30" as="geometry" />
        </mxCell>
        <mxCell id="RHV5B-X_f4Wp_k9Wsj0C-37" value="" style="shape=partialRectangle;collapsible=0;dropTarget=0;pointerEvents=0;fillColor=none;top=0;left=0;bottom=0;right=0;points=[[0,0.5],[1,0.5]];portConstraint=eastwest;" vertex="1" parent="RHV5B-X_f4Wp_k9Wsj0C-27">
          <mxGeometry y="120" width="180" height="30" as="geometry" />
        </mxCell>
        <mxCell id="RHV5B-X_f4Wp_k9Wsj0C-38" value="" style="shape=partialRectangle;connectable=0;fillColor=none;top=0;left=0;bottom=0;right=0;editable=1;overflow=hidden;" vertex="1" parent="RHV5B-X_f4Wp_k9Wsj0C-37">
          <mxGeometry width="30" height="30" as="geometry" />
        </mxCell>
        <mxCell id="RHV5B-X_f4Wp_k9Wsj0C-39" value="detail_task" style="shape=partialRectangle;connectable=0;fillColor=none;top=0;left=0;bottom=0;right=0;align=left;spacingLeft=6;overflow=hidden;" vertex="1" parent="RHV5B-X_f4Wp_k9Wsj0C-37">
          <mxGeometry x="30" width="150" height="30" as="geometry" />
        </mxCell>
        <mxCell id="RHV5B-X_f4Wp_k9Wsj0C-40" value="" style="shape=partialRectangle;collapsible=0;dropTarget=0;pointerEvents=0;fillColor=none;top=0;left=0;bottom=0;right=0;points=[[0,0.5],[1,0.5]];portConstraint=eastwest;" vertex="1" parent="RHV5B-X_f4Wp_k9Wsj0C-27">
          <mxGeometry y="150" width="180" height="30" as="geometry" />
        </mxCell>
        <mxCell id="RHV5B-X_f4Wp_k9Wsj0C-41" value="" style="shape=partialRectangle;connectable=0;fillColor=none;top=0;left=0;bottom=0;right=0;editable=1;overflow=hidden;" vertex="1" parent="RHV5B-X_f4Wp_k9Wsj0C-40">
          <mxGeometry width="30" height="30" as="geometry" />
        </mxCell>
        <mxCell id="RHV5B-X_f4Wp_k9Wsj0C-42" value="answer" style="shape=partialRectangle;connectable=0;fillColor=none;top=0;left=0;bottom=0;right=0;align=left;spacingLeft=6;overflow=hidden;" vertex="1" parent="RHV5B-X_f4Wp_k9Wsj0C-40">
          <mxGeometry x="30" width="150" height="30" as="geometry" />
        </mxCell>
        <mxCell id="RHV5B-X_f4Wp_k9Wsj0C-43" value="FK" style="shape=partialRectangle;connectable=0;fillColor=none;top=0;left=0;bottom=0;right=0;fontStyle=1;overflow=hidden;" vertex="1" parent="1">
          <mxGeometry x="270" y="380" width="30" height="30" as="geometry" />
        </mxCell>
        <mxCell id="RHV5B-X_f4Wp_k9Wsj0C-44" value="FK" style="shape=partialRectangle;connectable=0;fillColor=none;top=0;left=0;bottom=0;right=0;fontStyle=1;overflow=hidden;" vertex="1" parent="1">
          <mxGeometry x="270" y="410" width="30" height="30" as="geometry" />
        </mxCell>
        <mxCell id="RHV5B-X_f4Wp_k9Wsj0C-45" value="" style="edgeStyle=entityRelationEdgeStyle;fontSize=12;html=1;endArrow=ERoneToMany;" edge="1" parent="1" source="RHV5B-X_f4Wp_k9Wsj0C-2" target="RHV5B-X_f4Wp_k9Wsj0C-18">
          <mxGeometry width="100" height="100" relative="1" as="geometry">
            <mxPoint x="370" y="480" as="sourcePoint" />
            <mxPoint x="470" y="380" as="targetPoint" />
          </mxGeometry>
        </mxCell>
        <mxCell id="RHV5B-X_f4Wp_k9Wsj0C-46" value="" style="edgeStyle=entityRelationEdgeStyle;fontSize=12;html=1;endArrow=ERoneToMany;" edge="1" parent="1" source="RHV5B-X_f4Wp_k9Wsj0C-28" target="RHV5B-X_f4Wp_k9Wsj0C-21">
          <mxGeometry width="100" height="100" relative="1" as="geometry">
            <mxPoint x="370" y="480" as="sourcePoint" />
            <mxPoint x="470" y="380" as="targetPoint" />
          </mxGeometry>
        </mxCell>
      </root>
    </mxGraphModel>
  </diagram>
</mxfile>
